<?xml version="1.0" encoding="utf-8"?>
<!-- Generator: Adobe Illustrator 23.0.0, SVG Export Plug-In . SVG Version: 6.00 Build 0)  -->
<svg version="1.1" id="图层_1" xmlns="http://www.w3.org/2000/svg" xmlns:xlink="http://www.w3.org/1999/xlink" x="0px" y="0px"
	 viewBox="0 0 128 128" style="enable-background:new 0 0 128 128;" xml:space="preserve">
<style type="text/css">
	.st0{fill:#FFF813;}
</style>
<path class="st0" d="M94,117.4c-1.2,0-2.6-0.4-3.8-1l-26-13l-26.2,13c-2.6,1.4-6,1.2-8.4-0.6c-2.4-1.8-3.8-5-3.2-8l5.4-28L11.2,60.6
	C9,58.4,8.2,55,9,52.2c1-3,3.4-5.2,6.6-5.6l28.6-5.2l12.8-26c1.4-2.8,4.2-4.6,7.2-4.6c3,0,6,1.8,7.2,4.6l12.8,26l28.6,5
	c3,0.4,5.6,2.6,6.4,5.6c1,3,0.2,6.2-2,8.4L96.6,79.8l5.2,28c0.6,3.2-0.8,6.2-3.2,8C97.4,116.8,95.8,117.4,94,117.4z"/>
</svg>
