<svg id="图层_1" data-name="图层 1" xmlns="http://www.w3.org/2000/svg" viewBox="0 0 110.93 106.6"><defs><style>.cls-1{fill:#fff813;}</style></defs><title>get00</title><path class="cls-1" d="M94,117.4a9,9,0,0,1-3.8-1l-26-13L38,116.4a8,8,0,0,1-8.4-.6,8.26,8.26,0,0,1-3.2-8l5.4-28L11.2,60.6A8.8,8.8,0,0,1,9,52.2a8,8,0,0,1,6.6-5.6l28.6-5.2L57,15.4a8.16,8.16,0,0,1,7.2-4.6,7.93,7.93,0,0,1,7.2,4.6l12.8,26,28.6,5a7.72,7.72,0,0,1,6.4,5.6,8.15,8.15,0,0,1-2,8.4L96.6,79.8l5.2,28a8.1,8.1,0,0,1-3.2,8A7.13,7.13,0,0,1,94,117.4Z" transform="translate(-8.7 -10.8)"/></svg>