<?xml version="1.0" standalone="no"?><!DOCTYPE svg PUBLIC "-//W3C//DTD SVG 1.1//EN" "http://www.w3.org/Graphics/SVG/1.1/DTD/svg11.dtd"><svg t="1562487546501" class="icon" viewBox="0 0 1024 1024" version="1.1" xmlns="http://www.w3.org/2000/svg" p-id="1975" width="32" height="32" xmlns:xlink="http://www.w3.org/1999/xlink"><defs><style type="text/css"></style></defs><path d="M965.900709 733.503546l-225.134752-232.397163 210.60993-217.87234c29.049645-29.049645 50.836879-72.624113 50.836879-116.198582 0-43.574468-14.524823-87.148936-50.836879-116.198582-29.049645-29.049645-72.624113-50.836879-116.198582-50.836879-43.574468 0-87.148936 14.524823-116.198582 50.836879L508.368794 261.446809 297.758865 43.574468C261.446809 14.524823 225.134752 0 181.560284 0 137.985816 0 94.411348 14.524823 65.361702 50.836879c-29.049645 29.049645-50.836879 72.624113-50.836879 116.198582 0 43.574468 14.524823 87.148936 50.836879 116.198582l210.609929 217.87234-225.134752 232.397163c-29.049645 29.049645-50.836879 72.624113-50.836879 116.198582 0 43.574468 14.524823 87.148936 50.836879 116.198581 29.049645 29.049645 72.624113 50.836879 116.198582 50.83688 43.574468 0 87.148936-14.524823 116.198582-50.83688L508.368794 740.765957l225.134752 232.397164c29.049645 29.049645 72.624113 50.836879 116.198582 50.836879 43.574468 0 87.148936-14.524823 116.198581-50.836879 29.049645-29.049645 50.836879-72.624113 50.83688-116.198582 0-50.836879-14.524823-94.411348-50.83688-123.460993z m-50.836879 181.560284c-14.524823 14.524823-36.312057 29.049645-65.361702 29.049645-21.787234 0-43.574468-7.262411-65.361702-29.049645L537.41844 653.617021c-7.262411-7.262411-21.787234-7.262411-29.049646-7.262411s-21.787234 0-29.049645 7.262411l-254.184397 254.184397c-14.524823 14.524823-36.312057 29.049645-65.361702 29.049646-21.787234 0-43.574468-7.262411-65.361702-29.049646-14.524823-14.524823-29.049645-36.312057-29.049646-65.361702 0-21.787234 7.262411-43.574468 29.049646-65.361702l254.184397-254.184397c14.524823-14.524823 14.524823-43.574468 0-58.099291L116.198582 232.397163c-14.524823-21.787234-21.787234-43.574468-21.787234-65.361702s7.262411-43.574468 29.049645-65.361702c14.524823-14.524823 36.312057-29.049645 65.361702-29.049646 21.787234 0 43.574468 7.262411 65.361702 29.049646l239.659575 246.921986c0 14.524823 29.049645 14.524823 43.574468 0l239.659574-246.921986c14.524823-14.524823 36.312057-29.049645 65.361702-29.049646 21.787234 0 43.574468 7.262411 65.361702 29.049646 14.524823 14.524823 29.049645 36.312057 29.049646 65.361702s-7.262411 43.574468-29.049646 65.361702L660.879433 472.056738c-14.524823 14.524823-14.524823 43.574468 0 58.09929l254.184397 254.184398c14.524823 14.524823 29.049645 36.312057 29.049645 65.361702-7.262411 21.787234-14.524823 43.574468-29.049645 65.361702z" fill="#ffffff" p-id="1976"></path></svg>