<?xml version="1.0" encoding="utf-8"?>
<!-- Generator: Adobe Illustrator 23.0.0, SVG Export Plug-In . SVG Version: 6.00 Build 0)  -->
<svg version="1.1" id="图层_1" xmlns="http://www.w3.org/2000/svg" xmlns:xlink="http://www.w3.org/1999/xlink" x="0px" y="0px"
	 viewBox="0 0 128 128" style="enable-background:new 0 0 128 128;" xml:space="preserve">
<style type="text/css">
	.st0{fill:#8A8A8A;}
</style>
<path class="st0" d="M85.8,24.6c0,1,0.8,1.9,1.9,1.9s1.9-0.8,1.9-1.9s-0.8-1.9-1.9-1.9S85.8,23.5,85.8,24.6z"/>
<path class="st0" d="M124.3,62.3c0-33.3-27-60.3-60.3-60.3C39.7,2,17.9,16.5,8.4,38.8c-7.8,18.5-5.9,39.7,5.1,56.5v15
	c0,8.9,7.3,16.3,16.2,16.3c4.9,0,9.6-2.3,12.6-6.2c2.8-3.7,3.8-8.4,2.6-12.9c-0.7-2.7-1.5-7.4-1.5-9s0.8-6.3,1.5-9
	c1.2-4.5,0.2-9.3-2.6-12.9c-5.4-7-15.5-8.3-22.5-2.9c-1.4,1.1-2.7,2.5-3.7,4C13.5,69.6,13,60.8,14.7,52
	c3.6-18.1,21.5-35.8,39.6-39.2c31.9-6,59.9,18.5,59.9,49.4c0,5.2-0.8,10.5-2.4,15.5c-4.8-7.5-14.7-9.6-22.2-4.8
	c-1.5,1-2.9,2.2-4,3.7c-2.8,3.7-3.8,8.4-2.6,12.9c0.7,2.7,1.5,7.4,1.5,9s-0.8,6.3-1.5,9c-1.2,4.5-0.2,9.3,2.6,12.9
	c3,3.9,7.7,6.2,12.7,6.2c8.9,0,16.1-7.2,16.1-16.1c0,0,0,0,0,0V95.3C120.9,85.5,124.3,74,124.3,62.3z M23.5,86.5
	c0-3.3,2.6-6,5.8-6.2c2-0.1,3.9,0.8,5.1,2.4c0.9,1.2,1.2,2.8,0.8,4.3c-0.7,2.8-1.8,8.5-1.8,11.5s1.1,8.7,1.8,11.5
	c0.4,1.5,0.1,3.1-0.8,4.3c-1.1,1.5-2.9,2.4-4.8,2.4c-3.4,0-6.1-2.7-6.1-6.1l0,0L23.5,86.5z M104.4,110.4c0,3.3-2.6,6-5.8,6.2
	c-2,0.1-3.8-0.8-5.1-2.4c-0.9-1.2-1.2-2.8-0.8-4.3c0.7-2.8,1.8-8.5,1.8-11.5s-1.1-8.7-1.8-11.5c-0.4-1.5-0.1-3.1,0.8-4.3
	c1.2-1.6,3.1-2.4,5.1-2.4c3.3,0.1,5.8,2.9,5.8,6.2L104.4,110.4z"/>
<path class="st0" d="M81.4,19.3C63.1,11.8,42,16.9,29,31.8c-1.4,1.6-2.6,3.2-3.8,4.9c-0.6,0.8-0.4,2,0.4,2.6c0.8,0.6,2,0.4,2.6-0.4
	c0,0,0.1-0.1,0.1-0.2c7.9-12,21.3-19.2,35.6-19.2c5.5,0,10.9,1,16,3.1c1,0.4,2.1,0,2.5-1C82.9,20.8,82.5,19.7,81.4,19.3
	C81.5,19.3,81.5,19.3,81.4,19.3L81.4,19.3z M52.4,88.6v19.7c0,2.6,2.1,4.9,4.7,5.1c2.8,0.2,5.1-1.9,5.3-4.7c0-0.1,0-0.2,0-0.3V88.5
	c0-2.8-2.2-5-5-5c-0.1,0-0.2,0-0.3,0C54.5,83.7,52.4,86,52.4,88.6z M65.8,92.3v12.3c0,2.6,2.1,4.9,4.7,5.1c2.8,0.2,5.1-1.9,5.3-4.7
	c0-0.1,0-0.2,0-0.3V92.3c0-2.8-2.2-5-5-5c-0.1,0-0.2,0-0.3,0C67.9,87.4,65.8,89.8,65.8,92.3z"/>
</svg>
