<?xml version="1.0" standalone="no"?><!DOCTYPE svg PUBLIC "-//W3C//DTD SVG 1.1//EN" "http://www.w3.org/Graphics/SVG/1.1/DTD/svg11.dtd"><svg t="1561735328042" class="icon" viewBox="0 0 1024 1024" version="1.1" xmlns="http://www.w3.org/2000/svg" p-id="1783" xmlns:xlink="http://www.w3.org/1999/xlink" width="128" height="128"><defs><style type="text/css"></style></defs><path d="M888.912 422.192H648.448c93.184-344.16-64.224-361.744-64.224-361.744-66.704 0-52.864 52.784-57.92 61.536 0 168.336-178.768 300.224-178.768 300.224v477.296c0 47.072 64.192 64.064 89.376 64.064H798.24c34 0 61.68-89.152 61.68-89.152 89.376-304.016 89.376-394.448 89.376-394.448 0.064-62.816-60.384-57.776-60.384-57.776z m0 0M248.832 422.336H104.848c-29.728 0-30.192 29.2-30.192 29.2l29.728 481.392c0 30.624 30.688 30.624 30.688 30.624h124.624c25.984 0 25.712-20.272 25.712-20.272V458.848c0.016-36.96-36.576-36.512-36.576-36.512z m0 0" p-id="1784" fill="#d81e06"></path></svg>