<svg id="图层_1" data-name="图层 1" xmlns="http://www.w3.org/2000/svg" viewBox="0 0 109.6 112.9"><defs><style>.cls-1{fill:#fff813;}</style></defs><title>nice00</title><path class="cls-1" d="M111.1,52.8h-30c11.6-43-8-45.2-8-45.2-8.3,0-6.6,6.6-7.2,7.7,0,21-22.3,37.5-22.3,37.5v59.7c0,5.9,8,8,11.2,8H100c4.3,0,7.7-11.1,7.7-11.1,11.2-38,11.2-49.3,11.2-49.3-.2-8-7.8-7.3-7.8-7.3Zm-80,0h-18c-3.7,0-3.8,3.7-3.8,3.7L13,116.7c0,3.8,3.8,3.8,3.8,3.8H32.4c3.2,0,3.2-2.5,3.2-2.5V57.4C35.7,52.7,31.1,52.8,31.1,52.8Z" transform="translate(-9.3 -7.6)"/></svg>