<?xml version="1.0" encoding="utf-8"?>
<!-- Generator: Adobe Illustrator 23.0.0, SVG Export Plug-In . SVG Version: 6.00 Build 0)  -->
<svg version="1.1" id="图层_1" xmlns="http://www.w3.org/2000/svg" xmlns:xlink="http://www.w3.org/1999/xlink" x="0px" y="0px"
	 viewBox="0 0 128 128" style="enable-background:new 0 0 128 128;" xml:space="preserve">
<path d="M111.1,52.8H81.1c11.6-43-8-45.2-8-45.2c-8.3,0-6.6,6.6-7.2,7.7c0,21-22.3,37.5-22.3,37.5v59.7c0,5.9,8,8,11.2,8h45.2
	c4.3,0,7.7-11.1,7.7-11.1c11.2-38,11.2-49.3,11.2-49.3C118.7,52.1,111.1,52.8,111.1,52.8L111.1,52.8z M31.1,52.8h-18
	c-3.7,0-3.8,3.7-3.8,3.7l3.7,60.2c0,3.8,3.8,3.8,3.8,3.8h15.6c3.2,0,3.2-2.5,3.2-2.5V57.4C35.7,52.7,31.1,52.8,31.1,52.8z"/>
</svg>
