<?xml version="1.0" encoding="utf-8"?>
<!-- Generator: Adobe Illustrator 23.0.3, SVG Export Plug-In . SVG Version: 6.00 Build 0)  -->
<svg version="1.1" id="图层_1" xmlns="http://www.w3.org/2000/svg" xmlns:xlink="http://www.w3.org/1999/xlink" x="0px" y="0px"
	 viewBox="0 0 128 128" style="enable-background:new 0 0 128 128;" xml:space="preserve">
<style type="text/css">
	.st0{fill:#9F7D26;}
	.st1{fill:#FFFFFF;}
</style>
<rect x="-3.7" y="0" class="st0" width="135.3" height="127.9"/>
<path class="st1" d="M29.3,48.6l-5.3,51c-0.2,2.2,1.3,4.2,3.5,4.4c0.2,0,0.3,0,0.5,0H100c2.4,0,4.2-2,4-4.4l-5.3-51
	c-0.2-2.2-2.1-3.8-4.3-3.9H80.7v-4.1c0-9.2-7.4-16.6-16.6-16.6c-9.2,0-16.6,7.4-16.6,16.6l0,4.1h-14C31.4,44.7,29.5,46.4,29.3,48.6
	L29.3,48.6z M53.1,50.2v-9.6c0-6.1,5-11.1,11.1-11c0,0,0,0,0,0c6.1,0,11.1,4.9,11.1,11c0,0,0,0,0,0v9.6h19.2c-0.6,0-1.2-0.5-1.2-1.1
	l5.3,51c-0.1-0.8,0.6-1.6,1.4-1.7c0,0,0.1,0,0.1,0H28c0.9,0,1.5,0.7,1.5,1.6c0,0,0,0.1,0,0.1l5.3-51c-0.1,0.6-0.6,1.1-1.2,1.1
	L53.1,50.2L53.1,50.2z M75.2,50.2v12.4c0,1.5,1.2,2.8,2.8,2.8c1.5,0,2.8-1.2,2.8-2.8V44.7H53.1v5.5L75.2,50.2L75.2,50.2z M53.1,50.2
	h-5.5v12.4c0,1.5,1.2,2.8,2.8,2.8c1.5,0,2.8-1.2,2.8-2.8c0,0,0,0,0,0L53.1,50.2L53.1,50.2z"/>
</svg>
