<svg id="图层_1" data-name="图层 1" xmlns="http://www.w3.org/2000/svg" xmlns:xlink="http://www.w3.org/1999/xlink" viewBox="0 0 270.75 127.9"><defs><style>.cls-1{fill:#9f7d26;}.cls-2{fill:#fff;}.cls-3,.cls-5{isolation:isolate;}.cls-4{fill:none;}.cls-5{font-size:44px;fill:#78352d;font-family:SimSun;}</style></defs><title>shang_h2</title><rect class="cls-1" width="135.3" height="127.9"/><path class="cls-2" d="M29.3,48.6,24,99.6a4,4,0,0,0,3.5,4.4H100a4,4,0,0,0,4-4.4l-5.3-51a4.42,4.42,0,0,0-4.3-3.9H80.7V40.6a16.6,16.6,0,0,0-33.2,0v4.1h-14a4.31,4.31,0,0,0-4.2,3.9Zm23.8,1.6V40.6a11,11,0,0,1,11.1-11h0a11.05,11.05,0,0,1,11.1,11h0v9.6H94.5a1.2,1.2,0,0,1-1.2-1.1l5.3,51a1.63,1.63,0,0,1,1.4-1.7H28a1.5,1.5,0,0,1,1.5,1.6v.1l5.3-51a1.28,1.28,0,0,1-1.2,1.1Zm22.1,0V62.6a2.8,2.8,0,0,0,5.6,0V44.7H53.1v5.5Zm-22.1,0H47.6V62.6a2.8,2.8,0,0,0,5.6,0h0l-.1-12.4Z" transform="translate(3.7)"/><image class="cls-3" width="100" height="100" transform="translate(135.3 0.45) scale(1.35 1.27)" xlink:href="list_bg2.png"/><rect class="cls-4" x="158.7" y="12.1" width="88.7" height="106.7"/><g class="cls-3"><text class="cls-5" transform="translate(159.03 45.38)">网上</text><text class="cls-5" transform="translate(159.03 98.18)">商城</text></g></svg>