<?xml version="1.0" encoding="utf-8"?>
<!-- Generator: Adobe Illustrator 23.0.3, SVG Export Plug-In . SVG Version: 6.00 Build 0)  -->
<svg version="1.1" id="图层_1" xmlns="http://www.w3.org/2000/svg" xmlns:xlink="http://www.w3.org/1999/xlink" x="0px" y="0px"
	 viewBox="0 0 128 128" style="enable-background:new 0 0 128 128;" xml:space="preserve">
<style type="text/css">
	.st0{fill:#9F7D26;}
	.st1{fill:#FFFFFF;}
	.st2{fill:none;}
</style>
<rect x="-3.7" class="st0" width="135.3" height="127.9"/>
<path class="st1" d="M29.3,48.6l-5.3,51c-0.2,2.2,1.3,4.2,3.5,4.4c0.2,0,0.3,0,0.5,0h72c2.4,0,4.2-2,4-4.4l-5.3-51
	c-0.2-2.2-2.1-3.8-4.3-3.9H80.7v-4.1c0-9.2-7.4-16.6-16.6-16.6s-16.6,7.4-16.6,16.6v4.1h-14C31.4,44.7,29.5,46.4,29.3,48.6
	L29.3,48.6z M53.1,50.2v-9.6c0-6.1,5-11.1,11.1-11l0,0c6.1,0,11.1,4.9,11.1,11l0,0v9.6h19.2c-0.6,0-1.2-0.5-1.2-1.1l5.3,51
	c-0.1-0.8,0.6-1.6,1.4-1.7h0.1H28c0.9,0,1.5,0.7,1.5,1.6v0.1l5.3-51c-0.1,0.6-0.6,1.1-1.2,1.1L53.1,50.2L53.1,50.2z M75.2,50.2v12.4
	c0,1.5,1.2,2.8,2.8,2.8c1.5,0,2.8-1.2,2.8-2.8V44.7H53.1v5.5H75.2L75.2,50.2z M53.1,50.2h-5.5v12.4c0,1.5,1.2,2.8,2.8,2.8
	c1.5,0,2.8-1.2,2.8-2.8l0,0L53.1,50.2L53.1,50.2z"/>
<rect x="155" y="12.1" class="st2" width="88.7" height="106.7"/>
<image style="overflow:visible;enable-background:new    ;" width="100" height="100" xlink:href="list_bg2.png"  transform="matrix(1.3545 0 0 1.27 131.6 0.45)">
</image>
<text transform="matrix(1 0 0 1 155.3265 45.3795)" style="fill:#78352D; font-family:'SimSun'; font-size:44px;">网上</text>
<text transform="matrix(1 0 0 1 155.3265 98.1794)" style="fill:#78352D; font-family:'SimSun'; font-size:44px;">商城</text>
</svg>
