<?xml version="1.0" encoding="utf-8"?>
<!-- Generator: Adobe Illustrator 23.0.3, SVG Export Plug-In . SVG Version: 6.00 Build 0)  -->
<svg version="1.1" id="图层_1" xmlns="http://www.w3.org/2000/svg" xmlns:xlink="http://www.w3.org/1999/xlink" x="0px" y="0px"
	 viewBox="0 0 128 128" style="enable-background:new 0 0 128 128;" xml:space="preserve">
<style type="text/css">
	.st0{fill:#9F7D26;}
	.st1{fill:#FFFFFF;}
	.st2{fill:none;}
</style>
<rect x="-4" class="st0" width="135.3" height="127.9"/>
<path class="st1" d="M86.6,75.9c-5.9,0-11.1,3.3-13.8,8.1L53.3,73.6c1.4-2.3,2.2-5.1,2.2-8c0-2.1-0.4-4.1-1.2-5.9L75.8,46
	c2.9,3.7,7.4,6.1,12.4,6.1c8.7,0,15.8-7.1,15.8-15.7c0-8.7-7.1-15.8-15.8-15.8s-15.7,7.1-15.7,15.8c0,2,0.4,4,1.1,5.7L52.1,55.8
	c-2.9-3.6-7.3-5.9-12.3-5.9C31.1,49.9,24,57,24,65.6s7.1,15.7,15.8,15.7c4.1,0,7.9-1.6,10.7-4.2l20.7,11.1c-0.2,1.1-0.4,2.2-0.4,3.4
	c0,8.7,7.1,15.8,15.7,15.8c8.7,0,15.8-7.1,15.8-15.8C102.3,82.9,95.3,75.9,86.6,75.9L86.6,75.9z M88.3,25.5c6,0,10.8,4.8,10.8,10.8
	s-4.8,10.8-10.8,10.8s-10.8-4.8-10.8-10.8C77.4,30.4,82.3,25.5,88.3,25.5z M39.8,76.4c-6,0-10.8-4.8-10.8-10.8s4.8-10.8,10.8-10.8
	s10.8,4.8,10.8,10.8S45.7,76.4,39.8,76.4z M86.6,102.5c-6,0-10.8-4.8-10.8-10.8s4.8-10.8,10.8-10.8s10.8,4.8,10.8,10.8
	C97.4,97.6,92.5,102.5,86.6,102.5z"/>
<rect x="154.7" y="12.1" class="st2" width="88.7" height="106.7"/>
<image style="overflow:visible;enable-background:new    ;" width="100" height="100" xlink:href="list_bg2.png"  transform="matrix(1.3545 0 0 1.27 131.3 0.45)">
</image>
<text transform="matrix(1 0 0 1 155.0265 45.3795)" style="fill:#78352D; font-family:'SimSun'; font-size:44px;">推荐</text>
<text transform="matrix(1 0 0 1 155.0265 98.1794)" style="fill:#78352D; font-family:'SimSun'; font-size:44px;">分享</text>
</svg>
