<svg id="图层_1" data-name="图层 1" xmlns="http://www.w3.org/2000/svg" xmlns:xlink="http://www.w3.org/1999/xlink" viewBox="0 0 270.75 127.9"><defs><style>.cls-1{fill:#9f7d26;}.cls-2{fill:#fff;}.cls-3{fill:none;}.cls-4,.cls-5{isolation:isolate;}.cls-5{font-size:44px;fill:#78352d;font-family:SimSun;}</style></defs><title>she_h4</title><rect class="cls-1" width="135.3" height="127.9"/><path class="cls-2" d="M86.6,75.9A15.9,15.9,0,0,0,72.8,84L53.3,73.6a15.48,15.48,0,0,0,2.2-8,14.48,14.48,0,0,0-1.2-5.9L75.8,46a15.75,15.75,0,1,0-3.3-9.6,15.23,15.23,0,0,0,1.1,5.7L52.1,55.8a15.71,15.71,0,1,0-1.6,21.3L71.2,88.2a18.61,18.61,0,0,0-.4,3.4A15.75,15.75,0,1,0,86.6,75.9Zm1.7-50.4A10.8,10.8,0,1,1,77.5,36.3,10.76,10.76,0,0,1,88.3,25.5ZM39.8,76.4A10.8,10.8,0,1,1,50.6,65.6,10.76,10.76,0,0,1,39.8,76.4Zm46.8,26.1A10.8,10.8,0,1,1,97.4,91.7,10.88,10.88,0,0,1,86.6,102.5Z" transform="translate(4)"/><rect class="cls-3" x="158.7" y="12.1" width="88.7" height="106.7"/><image class="cls-4" width="100" height="100" transform="translate(135.3 0.45) scale(1.35 1.27)" xlink:href="list_bg2.png"/><text class="cls-5" transform="translate(159.03 45.38)">推荐</text><text class="cls-5" transform="translate(159.03 98.18)">分享</text></svg>