<?xml version="1.0" encoding="utf-8"?>
<!-- Generator: Adobe Illustrator 23.0.3, SVG Export Plug-In . SVG Version: 6.00 Build 0)  -->
<svg version="1.1" id="图层_1" xmlns="http://www.w3.org/2000/svg" xmlns:xlink="http://www.w3.org/1999/xlink" x="0px" y="0px"
	 viewBox="0 0 128 128" style="enable-background:new 0 0 128 128;" xml:space="preserve">
<style type="text/css">
	.st0{fill:#9F7D26;}
	.st1{fill:#FFFFFF;}
</style>
<rect x="-4" class="st0" width="135.3" height="127.9"/>
<path class="st1" d="M86.6,75.9c-5.9,0-11.1,3.3-13.8,8.1L53.3,73.6c1.4-2.3,2.2-5.1,2.2-8c0-2.1-0.4-4.1-1.2-5.9L75.8,46
	c2.9,3.7,7.4,6.1,12.4,6.1c8.7,0,15.8-7.1,15.8-15.7c0-8.7-7.1-15.8-15.8-15.8c-8.7,0-15.7,7.1-15.7,15.8c0,2,0.4,4,1.1,5.7
	L52.1,55.8c-2.9-3.6-7.3-5.9-12.3-5.9c-8.7,0-15.8,7.1-15.8,15.7s7.1,15.7,15.8,15.7c4.1,0,7.9-1.6,10.7-4.2l20.7,11.1
	c-0.2,1.1-0.4,2.2-0.4,3.4c0,8.7,7.1,15.8,15.7,15.8c8.7,0,15.8-7.1,15.8-15.8C102.3,82.9,95.3,75.9,86.6,75.9L86.6,75.9z
	 M88.3,25.5c6,0,10.8,4.8,10.8,10.8c0,6-4.8,10.8-10.8,10.8c-6,0-10.8-4.8-10.8-10.8C77.4,30.4,82.3,25.5,88.3,25.5z M39.8,76.4
	c-6,0-10.8-4.8-10.8-10.8s4.8-10.8,10.8-10.8s10.8,4.8,10.8,10.8S45.7,76.4,39.8,76.4z M86.6,102.5c-6,0-10.8-4.8-10.8-10.8
	c0-6,4.8-10.8,10.8-10.8c6,0,10.8,4.8,10.8,10.8C97.4,97.6,92.5,102.5,86.6,102.5z"/>
</svg>
