<?xml version="1.0" encoding="utf-8"?>
<!-- Generator: Adobe Illustrator 23.0.0, SVG Export Plug-In . SVG Version: 6.00 Build 0)  -->
<svg version="1.1" id="图层_1" xmlns="http://www.w3.org/2000/svg" xmlns:xlink="http://www.w3.org/1999/xlink" x="0px" y="0px"
	 viewBox="0 0 128 128" style="enable-background:new 0 0 128 128;" xml:space="preserve">
<style type="text/css">
	.st0{fill:#AA0004;}
</style>
<path class="st0" d="M64,74.7c15.7,0,30.2-13.7,31.9-33.8C97.6,19.8,83.6,0,64,0S30.4,19.8,32.1,40.8C33.8,60.9,48.3,74.7,64,74.7z
	 M63.7,85.5C28.5,85.5,0,99.5,0,116.8c0,5.9,5.4,8.2,21.4,9.9C33.7,128,48.5,128,64,128c15.9,0,31.7,0,42.8-1.3
	c15.7-1.9,21.2-4,21.2-9.9C128,99.5,98.9,85.5,63.7,85.5z"/>
</svg>
