<?xml version="1.0" encoding="utf-8"?>
<!-- Generator: Adobe Illustrator 23.0.0, SVG Export Plug-In . SVG Version: 6.00 Build 0)  -->
<svg version="1.1" id="图层_1" xmlns="http://www.w3.org/2000/svg" xmlns:xlink="http://www.w3.org/1999/xlink" x="0px" y="0px"
	 viewBox="0 0 270.8 127.9" style="enable-background:new 0 0 270.8 127.9;" xml:space="preserve">
<style type="text/css">
	.st0{fill:#9F7D26;}
	.st1{fill:#FFFFFF;}
	.st2{fill:none;}
	.st3{font-family:'SimSun';}
	.st4{font-size:44px;}
	.st5{stroke:#000000;stroke-miterlimit:10;}
</style>
<title>wen_h3</title>
<g>
	<path class="st0" d="M0,112.9c0,8.3,6.7,15,15,15h105.3c8.3,0,15-6.7,15-15V15c0-8.3-6.7-15-15-15H15C6.7,0,0,6.7,0,15V112.9z"/>
</g>
<path class="st1" d="M107.8,53.9c0-1.3-1.1-2.4-2.4-2.4H103V36.2h2.4c1.3,0.1,2.5-1,2.5-2.3c0.1-1.3-0.9-2.4-2.1-2.5H94.4v4.8h5.1
	v15.3h-51c-4.2-0.1-7.5-3.6-7.4-7.8l0,0v-0.2c0.4-4.1,3.9-7.3,8.1-7.2h45.3v-4.9H49c-6.3-0.1-11.8,4.5-12.8,10.7
	c-0.5,3.3,0.4,6.7,2.5,9.4h-8.6c-1.3-0.2-2.5,0.8-2.7,2.1s0.8,2.5,2.1,2.7c0.1,0,0.1,0,0.2,0h2.8v15.3h-2.4c-1.3-0.1-2.5,1-2.5,2.3
	c-0.1,1.3,0.9,2.4,2.1,2.5h9c-2.1,2.7-3,6.1-2.5,9.4c1,6.3,6.5,10.8,12.8,10.7h56.4c1.3,0.2,2.5-0.8,2.7-2.1
	c0.2-1.3-0.8-2.5-2.1-2.7c-0.1,0-0.1,0-0.2,0H103V76.5h2.4c1.3,0.2,2.5-0.8,2.7-2.1c0.2-1.3-0.8-2.5-2.1-2.7c-0.1,0-0.1,0-0.2,0h-9
	c3.5-4.5,3.5-10.8,0-15.3h8.6C106.8,56.4,107.8,55.3,107.8,53.9z M36,71.6V56.4h51c4.2,0,7.6,3.4,7.6,7.6s-3.4,7.6-7.6,7.6l0,0H36z
	 M99.4,76.5v15.3H48.6c-4.2,0.1-7.6-3.3-7.7-7.5c-0.1-4.2,3.3-7.6,7.5-7.7l0,0C48.4,76.5,99.4,76.5,99.4,76.5z"/>
<rect x="158.7" y="12.1" class="st2" width="88.7" height="106.7"/>
<image style="overflow:visible;enable-background:new    ;" width="100" height="100" xlink:href="list_bg2.png"  transform="matrix(1.35 0 0 1.27 135.3 0.45)">
</image>
<text transform="matrix(1 0 0 1 159.03 45.38)" class="st1 st3 st4">音频</text>
<text transform="matrix(1 0 0 1 159.03 45.38)" class="st5 st3 st4">音频</text>
<text transform="matrix(1 0 0 1 159.03 98.18)" class="st1 st3 st4">视频</text>
<text transform="matrix(1 0 0 1 159.03 98.18)" class="st5 st3 st4">视频</text>
</svg>
