<?xml version="1.0" encoding="utf-8"?>
<!-- Generator: Adobe Illustrator 23.0.3, SVG Export Plug-In . SVG Version: 6.00 Build 0)  -->
<svg version="1.1" id="图层_1" xmlns="http://www.w3.org/2000/svg" xmlns:xlink="http://www.w3.org/1999/xlink" x="0px" y="0px"
	 viewBox="0 0 128 128" style="enable-background:new 0 0 128 128;" xml:space="preserve">
<style type="text/css">
	.st0{fill:#9F7D26;}
	.st1{fill:#FFFFFF;}
</style>
<rect x="-3.7" y="0" class="st0" width="135.3" height="127.9"/>
<path class="st1" d="M104.1,53.9c0-1.3-1.1-2.4-2.4-2.4h-2.4V36.2h2.4c1.3,0.1,2.5-0.9,2.6-2.2s-0.9-2.5-2.2-2.6c-0.1,0-0.3,0-0.4,0
	h-11v4.8h5.1v15.3h-51c-4.2-0.1-7.5-3.6-7.4-7.8c0-0.1,0-0.2,0-0.2c0.4-4.1,3.9-7.3,8.1-7.2h45.3v-4.9H45.3
	c-6.3-0.1-11.8,4.5-12.8,10.7c-0.5,3.3,0.4,6.7,2.5,9.4h-8.6c-1.3-0.1-2.5,0.9-2.6,2.2c-0.1,1.3,0.9,2.5,2.2,2.6c0.1,0,0.3,0,0.4,0
	h2.4v15.3h-2.4c-1.3-0.1-2.5,0.9-2.6,2.2c-0.1,1.3,0.9,2.5,2.2,2.6c0.1,0,0.3,0,0.4,0h8.6c-2.1,2.7-3,6.1-2.5,9.4
	c1,6.3,6.5,10.8,12.8,10.7h56.4c1.3,0.1,2.5-0.9,2.6-2.2c0.1-1.3-0.9-2.5-2.2-2.6c-0.1,0-0.3,0-0.4,0h-2.4V76.5h2.4
	c1.3,0.1,2.5-0.9,2.6-2.2s-0.9-2.5-2.2-2.6c-0.1,0-0.3,0-0.4,0h-8.6c3.5-4.5,3.5-10.8,0-15.3h8.6C103,56.4,104.1,55.3,104.1,53.9
	C104.1,53.9,104.1,53.9,104.1,53.9z M32.3,71.6V56.4h51c4.2,0,7.6,3.4,7.6,7.6s-3.4,7.6-7.6,7.6H32.3z M95.7,76.5v15.3H44.9
	c-4.2,0.1-7.7-3.3-7.7-7.5c-0.1-4.2,3.3-7.7,7.5-7.7l0,0C44.7,76.5,95.7,76.5,95.7,76.5z"/>
</svg>
