<?xml version="1.0" encoding="utf-8"?>
<!-- Generator: Adobe Illustrator 23.0.0, SVG Export Plug-In . SVG Version: 6.00 Build 0)  -->
<svg version="1.1" id="图层_1" xmlns="http://www.w3.org/2000/svg" xmlns:xlink="http://www.w3.org/1999/xlink" x="0px" y="0px"
	 viewBox="0 0 149 149" style="enable-background:new 0 0 149 149;" xml:space="preserve">
<style type="text/css">
	.st0{fill:#674D22;}
	.st1{fill:#856427;}
	.st2{fill:#FFFFFF;}
	.st3{fill:#FFFFFF;stroke:#FFFFFF;stroke-miterlimit:10;}
	.st4{font-family:'SimSun';}
	.st5{font-size:32px;}
</style>
<title>syfz_wssc</title>
<path class="st0" d="M15,0h119c8.3,0,15,6.7,15,15v119c0,8.3-6.7,15-15,15H15c-8.3,0-15-6.7-15-15V15C0,6.7,6.7,0,15,0z"/>
<path class="st1" d="M0,14.6h149c0,0,0,0,0,0v100c0,0,0,0,0,0H0c0,0,0,0,0,0L0,14.6C0,14.6,0,14.6,0,14.6z"/>
<path class="st1" d="M15,0h119c8.3,0,15,6.7,15,15v20c0,8.3-6.7,15-15,15H15C6.7,50,0,43.3,0,35V15C0,6.7,6.7,0,15,0z"/>
<image style="overflow:visible;enable-background:new    ;" width="52" height="129" xlink:href="2643FF3.png"  transform="matrix(0.9808 0 0 0.9808 98.04 9.5004)">
</image>
<path class="st2" d="M31.1,43.4l-6.6,63.7c-0.3,2.7,1.7,5.2,4.4,5.5h90.6c2.8,0,5-2.2,5-5c0-0.2,0-0.4,0-0.5l-6.6-63.7
	c-0.3-2.8-2.6-4.9-5.4-4.9H95.4v-5.1c0-11.5-9.3-20.7-20.7-20.7c-11.5,0-20.7,9.3-20.7,20.7v5.1H36.4C33.7,38.6,31.4,40.6,31.1,43.4
	L31.1,43.4z M60.9,45.4v-12c0-7.6,6.1-13.7,13.7-13.8c0,0,0.1,0,0.1,0l0,0c7.6,0,13.8,6.1,13.9,13.7c0,0,0,0,0,0l0,0v12h24
	c-0.8,0-1.4-0.6-1.5-1.4l6.6,63.7c-0.1-1.1,0.7-2,1.8-2.1h-90c1,0,1.9,0.8,1.9,1.9c0,0,0,0.1,0,0.1v0.1L38,44.1
	c-0.1,0.8-0.7,1.3-1.5,1.4L60.9,45.4z M88.5,45.4v15.5c0,1.9,1.6,3.5,3.5,3.5s3.5-1.6,3.5-3.5V38.5H60.9v6.9L88.5,45.4z M60.9,45.4
	H54v15.5c0,1.9,1.6,3.5,3.5,3.5s3.5-1.6,3.5-3.5l0,0L60.9,45.4L60.9,45.4z"/>
<path class="st0" d="M52.6,114.6H149c0,0,0,0,0,0v16.6c0,0,0,0,0,0H52.6c0,0,0,0,0,0L52.6,114.6C52.6,114.6,52.6,114.6,52.6,114.6z"
	/>
<text transform="matrix(1 0 0 1 6.8816 142.2343)" class="st3 st4 st5">网上商城</text>
</svg>
