<?xml version="1.0" encoding="utf-8"?>
<!-- Generator: Adobe Illustrator 23.0.0, SVG Export Plug-In . SVG Version: 6.00 Build 0)  -->
<svg version="1.1" id="图层_1" xmlns="http://www.w3.org/2000/svg" xmlns:xlink="http://www.w3.org/1999/xlink" x="0px" y="0px"
	 viewBox="0 0 149 149" style="enable-background:new 0 0 149 149;" xml:space="preserve">
<style type="text/css">
	.st0{fill:#411A1B;}
	.st1{fill:#631F29;}
	.st2{fill:#FFFFFF;}
	.st3{fill:#FFFFFF;stroke:#FFFFFF;stroke-miterlimit:10;}
	.st4{font-family:'SimSun';}
	.st5{font-size:32px;}
</style>
<title>syfz_wssc</title>
<g>
	<path class="st0" d="M0,134c0,8.3,6.7,15,15,15h119c8.3,0,15-6.7,15-15V15c0-8.3-6.7-15-15-15H15C6.7,0,0,6.7,0,15V134z"/>
</g>
<g>
	<path class="st1" d="M0,99.6c0,8.3,6.7,15,15,15h119c8.3,0,15-6.7,15-15V15c0-8.3-6.7-15-15-15H15C6.7,0,0,6.7,0,15V99.6z"/>
</g>
<g>
	<polygon class="st1" points="0,114.6 0,114.6 149,114.6 149,114.6 149,60.6 149,60.6 0,60.6 0,60.6 	"/>
</g>
<image style="overflow:visible;opacity:0.67;enable-background:new    ;" width="56" height="126" xlink:href="7CF08355.png"  transform="matrix(0.9724 0 0 0.9724 95.5919 8.5906)">
</image>
<g>
	<polygon class="st0" points="80.4,135.2 80.4,135.2 149,135.2 149,135.2 149,114.6 149,114.6 80.4,114.6 80.4,114.6 	"/>
</g>
<path class="st2" d="M98,74c-6.9,0-13,3.6-16.2,8.8L59,71.5c1.6-2.5,2.6-5.6,2.6-8.7c0-2.3-0.5-4.5-1.4-6.4l25.2-14.9
	c3.4,4,8.7,6.7,14.5,6.7c10.2,0,18.5-7.7,18.5-17.1c0-9.5-8.3-17.2-18.5-17.2S81.5,21.5,81.5,31c0,2.2,0.5,4.4,1.3,6.2L57.6,52.1
	c-3.4-3.9-8.5-6.4-14.4-6.4c-10.2,0-18.5,7.7-18.5,17.1S33,79.9,43.2,79.9c4.8,0,9.3-1.8,12.5-4.6l24.2,12.1
	c-0.2,1.2-0.5,2.4-0.5,3.7c0,9.5,8.3,17.2,18.4,17.2c10.2,0,18.5-7.7,18.5-17.2C116.4,81.7,108.2,74,98,74L98,74z M100,19.1
	c7,0,12.7,5.2,12.7,11.8S107,42.6,100,42.6s-12.7-5.2-12.7-11.8C87.2,24.4,92.9,19.1,100,19.1z M43.2,74.6c-7,0-12.6-5.2-12.6-11.8
	S36.1,51,43.2,51s12.7,5.2,12.7,11.8S50.1,74.6,43.2,74.6z M98,103.1c-7,0-12.7-5.2-12.7-11.8S90.9,79.5,98,79.5s12.7,5.2,12.7,11.8
	C110.6,97.7,104.9,103.1,98,103.1z"/>
<text transform="matrix(1 0 0 1 10.103 142.2344)" class="st3 st4 st5">推荐分享</text>
</svg>
